<?xml version="1.0" standalone="no"?>
<!DOCTYPE svg PUBLIC "-//W3C//DTD SVG 20010904//EN"
 "http://www.w3.org/TR/2001/REC-SVG-20010904/DTD/svg10.dtd">
<svg version="1.0" xmlns="http://www.w3.org/2000/svg"
 width="2048.000000pt" height="2048.000000pt" viewBox="0 0 2048.000000 2048.000000"
 preserveAspectRatio="xMidYMid meet">

<g transform="translate(0.000000,2048.000000) scale(0.100000,-0.100000)"
fill="#000000" stroke="none">
<path d="M12080 17920 l0 -100 -100 0 -100 0 0 -205 0 -205 -105 0 -105 0 0
-105 0 -105 -305 0 -305 0 0 105 0 105 -820 0 -821 0 3 -102 3 -103 818 -3
817 -2 0 -100 0 -100 205 0 205 0 0 -100 0 -100 105 0 105 0 0 200 0 200 100
0 100 0 0 105 0 105 100 0 100 0 0 205 0 205 205 0 205 0 1 33 c0 17 2 62 3
100 l2 67 -208 0 -208 0 0 -100z"/>
<path d="M7380 17720 l0 -100 -105 0 -105 0 0 -210 0 -210 105 0 c120 0 108
-12 107 108 0 75 12 83 16 10 1 -29 5 -60 8 -70 3 -10 1 -18 -5 -18 -6 0 -8
-7 -5 -15 4 -8 1 -15 -5 -15 -7 0 -11 -33 -11 -100 l0 -99 98 -3 97 -3 3 -97
3 -98 99 0 c93 0 100 1 100 20 0 11 4 20 8 20 4 0 8 -9 8 -20 0 -11 -4 -20 -8
-20 -4 0 -9 -93 -10 -207 l-3 -208 -97 -3 -98 -3 0 -99 0 -100 -100 0 -99 0
-3 -102 -3 -103 -102 -3 -103 -3 0 -99 0 -100 -105 0 -105 0 0 -205 0 -204
-97 -3 -98 -3 -5 -200 -5 -200 -97 -3 -98 -3 0 -104 0 -105 -105 0 -105 0 0
-100 0 -100 -105 0 -105 0 0 -105 0 -105 -100 0 -100 0 0 -100 0 -100 -100 0
-100 0 0 -615 0 -615 100 0 100 0 0 -100 0 -100 -100 0 -99 0 -3 -102 -3 -103
-102 -3 -103 -3 0 -99 0 -100 -105 0 -105 0 0 -205 0 -205 -100 0 -100 0 0
-210 0 -210 -100 0 -100 0 0 -200 0 -200 -105 0 -105 0 0 -310 0 -310 -100 0
-100 0 0 -510 0 -509 103 -3 102 -3 3 -612 2 -612 98 -3 97 -3 3 -102 3 -103
99 0 100 0 0 -100 0 -100 410 0 410 0 0 100 0 100 100 0 100 0 0 105 0 105
105 0 105 0 0 210 0 210 105 0 105 0 0 95 0 95 100 0 100 0 0 -405 0 -405 100
0 100 0 0 -512 0 -513 102 0 103 0 3 -617 2 -618 105 0 104 0 3 -101 3 -101
403 1 402 1 0 -205 0 -205 105 0 105 0 0 100 0 100 100 0 100 0 0 -100 0 -100
-100 0 -100 0 0 -102 0 -103 73 0 c39 0 84 -1 100 -3 l27 -4 0 -99 0 -99 210
0 210 0 0 100 0 100 100 0 100 0 0 105 0 105 100 0 100 0 -1 -715 -1 -715
-409 0 -409 0 0 -105 0 -105 -310 0 -310 0 0 -100 0 -100 -1020 0 -1020 0 3
407 2 408 100 0 100 0 0 100 0 100 -102 3 c-78 2 -103 0 -104 -10 -5 -48 -6
-80 -8 -130 -2 -90 -16 -68 -16 24 l0 83 -37 0 c-51 0 -57 11 -6 13 23 1 47 7
52 12 7 7 -88 9 -294 8 l-305 -3 -3 -103 -3 -103 -127 1 c-248 2 -252 2 -253
-17 -1 -12 -4 -10 -9 7 -5 16 -8 -13 -9 -82 l-1 -108 -208 0 -207 0 0 -202 1
-203 185 -2 c101 -1 194 -2 207 -2 21 -1 22 -4 22 -101 l0 -100 200 0 200 0 0
-100 0 -100 300 0 300 0 0 87 c0 47 2 84 4 82 2 -2 6 -39 9 -82 3 -43 8 -81
12 -85 4 -4 465 -8 1026 -10 l1019 -4 1 94 c1 51 1 96 0 100 0 5 138 8 309 8
l309 0 4 93 3 92 0 -95 -1 -95 -305 -5 -305 -5 -1 -32 c-1 -18 4 -33 10 -33 7
0 6 -4 -2 -8 -8 -6 -11 -24 -9 -54 2 -26 0 -52 -4 -60 -7 -11 -174 -13 -931
-13 l-923 0 -2 -92 -1 -93 4099 0 4099 0 0 51 c0 31 -4 48 -10 44 -6 -3 -10
-1 -10 4 0 6 6 11 13 11 6 0 1 10 -13 21 -14 11 -19 17 -11 13 11 -5 13 -3 8
9 -3 10 -2 17 3 17 5 0 11 -8 13 -17 4 -16 5 -16 6 -1 1 24 -12 29 -77 34 -42
3 -53 1 -42 -7 11 -8 9 -9 -10 -3 -14 4 -358 8 -765 8 -407 1 -746 5 -752 9
-9 6 -13 38 -13 103 0 52 -4 94 -9 94 -4 0 -7 -13 -5 -30 2 -16 0 -30 -5 -30
-4 0 -8 12 -7 28 l1 27 -290 3 c-216 2 -291 5 -297 15 -9 14 -11 113 -2 104 4
-4 7 -28 8 -54 l1 -48 308 -3 307 -2 0 -100 0 -100 613 0 c336 0 892 3 1235 7
l622 6 0 99 0 99 200 -3 c153 -2 201 0 205 9 2 7 0 13 -4 13 -5 0 -6 12 -2 27
4 15 4 47 0 72 -12 85 -22 81 200 82 108 1 201 1 206 0 6 0 9 72 7 205 l-3
205 -208 -3 c-136 -2 -207 0 -205 7 8 24 10 196 3 201 -5 3 -9 2 -9 -3 0 -4
-42 -6 -92 -3 -51 3 -139 5 -195 4 l-103 -1 -1 86 c-1 47 -1 94 0 104 2 16
-13 17 -198 17 -179 0 -201 -2 -201 -16 0 -11 4 -14 13 -7 6 5 48 8 92 6 97
-4 107 -5 99 -12 -3 -3 -46 -6 -97 -7 -51 -1 -95 -2 -99 -3 -5 0 -8 -35 -8
-76 l0 -74 93 -4 92 -3 -97 -2 -97 -2 -3 101 -3 102 -102 -2 -103 -2 0 100 0
101 -200 0 -199 0 -3 108 -3 107 -105 0 -105 0 -3 103 -3 102 -94 0 -95 0 0
100 0 100 -105 0 -105 0 0 205 0 206 -102 -3 -103 -3 -3 -202 -2 -203 100 0
100 0 0 -100 0 -100 53 -1 c50 -1 134 -5 150 -8 4 0 7 -46 7 -101 l0 -100 100
0 100 0 0 -106 0 -105 105 3 105 3 0 -102 0 -103 205 0 205 0 0 -102 0 -103
87 2 c48 1 93 -1 100 -5 10 -6 13 -93 15 -394 1 -213 6 -397 11 -410 10 -26
12 -186 3 -195 -3 -4 -6 37 -6 90 l0 97 -1025 0 -1025 0 0 100 0 100 -310 0
-310 0 0 105 0 106 -405 -3 -405 -3 0 605 c0 333 -3 656 -7 718 l-6 112 -99 0
-98 0 0 -720 0 -720 88 -2 87 -2 -84 -3 c-50 -2 -88 0 -95 7 -7 7 -9 140 -8
415 3 328 1 405 -10 406 -7 0 -329 0 -715 -1 l-703 -1 0 310 0 311 -100 0
-100 0 0 205 0 205 100 0 100 0 0 205 0 205 105 0 105 0 0 205 0 205 105 0
105 0 0 205 0 205 100 0 100 0 0 100 0 100 205 0 205 0 0 -100 0 -100 105 0
105 0 0 -310 0 -310 100 0 100 0 0 -305 0 -304 103 -3 102 -3 3 -202 2 -203
100 0 100 0 0 -105 0 -105 100 0 100 0 0 -100 0 -100 205 0 205 0 0 100 0 100
105 0 105 0 0 105 0 105 -105 0 -105 0 0 100 0 100 105 0 105 0 0 -100 0 -100
104 0 c61 0 106 -4 108 -10 2 -6 2 85 0 202 l-3 213 88 2 c48 0 231 2 406 2
l317 1 0 715 0 715 105 0 105 0 0 515 0 515 100 0 100 0 0 410 0 410 100 0
100 0 0 815 0 815 110 0 110 0 0 -100 0 -100 200 0 200 0 0 -100 0 -100 510 0
510 0 0 100 0 100 210 0 210 0 0 100 0 100 200 0 200 0 0 105 0 105 105 0 105
0 0 100 0 100 100 0 100 0 0 105 0 105 100 0 99 0 3 103 3 102 202 3 202 2 3
98 3 97 108 3 107 3 0 104 0 105 100 0 100 0 0 205 0 205 100 0 100 0 0 405 0
405 -100 0 -100 0 0 310 0 309 -102 3 -103 3 -3 98 -3 97 -409 0 -410 0 0 410
0 409 -97 3 -98 3 -3 98 -3 98 -102 -3 -102 -3 0 -95 0 -95 104 -3 104 -3 -7
-52 c-3 -29 -6 -213 -6 -409 l0 -358 -200 0 -200 0 0 105 0 105 -100 0 -100 0
0 410 0 410 200 0 201 0 -3 103 -3 102 -180 3 c-99 1 -190 0 -202 -3 -22 -5
-23 -10 -23 -105 l0 -100 -92 -1 c-51 -1 -96 -1 -100 0 -5 0 -8 -276 -8 -614
l0 -615 -105 0 -105 0 0 -310 0 -310 -100 0 -100 0 0 -100 0 -100 -100 0 -100
0 0 -105 0 -105 -310 0 -310 0 0 205 0 204 -102 3 -103 3 -3 98 -3 97 -94 0
-95 0 0 515 0 515 -110 0 -110 0 0 100 0 100 -100 0 -100 0 0 310 0 310 -100
0 c-88 0 -100 -2 -100 -17 -1 -10 0 -242 0 -515 l1 -498 -106 0 -105 0 0 82
c0 100 -9 100 -11 0 l-2 -72 -98 0 -99 0 0 -95 c0 -68 4 -96 13 -97 6 -1 -40
-4 -103 -7 l-115 -6 -3 -102 -3 -103 -410 0 -411 0 4 -100 3 -100 -1732 0
-1733 0 -1 23 c-1 12 -1 57 0 100 l2 77 -205 0 -206 0 0 100 0 100 -205 0
-204 0 -3 103 -3 102 -100 5 -100 5 0 813 0 813 107 -3 c91 -3 105 -1 99 12
-4 8 -6 35 -4 60 2 25 3 50 3 55 -6 123 -4 203 5 197 5 -3 5 1 -2 9 -6 8 -11
29 -11 47 l1 32 104 0 103 0 0 111 c0 71 -4 108 -10 104 -5 -3 -10 -1 -10 4 0
6 -5 11 -11 11 -5 0 -8 -3 -6 -7 3 -5 -26 -8 -63 -9 -38 0 -68 2 -68 5 2 19
-4 24 -12 11 -9 -13 -10 -13 -10 0 0 11 -2 12 -8 3 -4 -7 -7 8 -7 33 0 24 4
44 8 44 4 0 4 8 -1 18 -5 9 -9 32 -10 50 l-2 33 149 -2 c121 -2 148 -5 144
-15 -6 -17 -15 -18 -33 -1 -8 6 -6 2 5 -11 l19 -23 13 26 c11 20 20 25 46 23
18 -2 41 -12 53 -25 26 -28 34 -29 27 -3 -3 11 -9 18 -13 15 -5 -3 -11 -1 -15
5 -3 5 1 10 9 10 13 0 16 16 16 98 l0 99 111 6 c61 4 151 4 200 0 l89 -6 0
112 0 112 103 -5 c56 -2 115 -5 130 -5 15 0 34 -7 42 -14 11 -12 9 -14 -16
-15 -18 0 -27 3 -23 10 4 6 1 9 -7 6 -10 -3 -15 -29 -17 -97 -2 -69 0 -92 9
-89 12 4 21 48 10 48 -5 0 -6 69 -2 103 2 14 21 7 21 -9 0 -8 5 -12 10 -9 6 4
8 11 5 16 -4 5 0 9 9 9 8 0 16 -6 19 -12 2 -7 8 -9 13 -5 5 4 2 12 -6 17 -13
8 -12 10 3 10 9 0 17 -4 17 -10 0 -5 4 -10 10 -10 5 0 7 7 4 15 -8 20 6 19 23
-2 8 -10 12 -12 8 -5 -4 7 3 16 17 21 17 7 8 9 -34 6 -32 -2 -60 1 -64 6 -8
14 130 11 144 -3 9 -9 12 -9 12 0 0 7 -4 12 -10 12 -6 0 -10 42 -10 105 l0
105 200 0 200 0 0 100 0 100 -200 0 -200 0 0 -100 0 -100 -410 0 -410 0 -1
-42 c-1 -24 -3 -68 -3 -98 -1 -30 -3 -103 -4 -161 l-2 -106 -47 0 c-42 -1 -44
0 -18 7 26 7 23 8 -22 9 -31 1 -53 6 -56 14 -4 10 -6 10 -6 0 -1 -7 -6 -13
-12 -13 -6 0 -9 9 -6 20 3 11 1 20 -4 20 -5 0 -9 -9 -9 -20 0 -11 -4 -20 -10
-20 -6 0 -10 38 -10 95 l0 95 -90 0 c-49 0 -90 3 -90 8 0 4 38 7 85 7 l85 -1
0 93 0 93 -100 0 -100 0 0 101 0 100 -79 -2 c-44 -1 -84 -5 -90 -8 -6 -4 -12
-33 -13 -64 -3 -69 -16 -77 -16 -9 0 91 -1 104 -14 96 -16 -10 -58 -11 -58 -2
0 4 4 8 8 8 5 0 15 11 22 25 l14 26 12 -22 c9 -19 12 -7 12 72 1 52 -2 87 -6
79 -4 -8 -16 -16 -27 -17 -11 -1 -14 0 -7 3 29 13 7 21 -65 23 -54 2 -79 -2
-84 -11 -5 -7 -9 38 -9 104 l0 116 98 -1 c53 -1 143 0 198 1 l101 2 0 100 0
100 -198 0 -199 0 0 -100z m190 -360 c0 -5 -4 -10 -10 -10 -5 0 -10 5 -10 10
0 6 5 10 10 10 6 0 10 -4 10 -10z m0 -30 c0 -13 -11 -13 -30 0 -12 8 -11 10 8
10 12 0 22 -4 22 -10z m-7 -33 c3 -8 -1 -14 -8 -14 -7 0 -11 6 -8 14 3 7 6 13
8 13 2 0 5 -6 8 -13z m-140 -12 c-3 -9 -8 -14 -10 -11 -3 3 -2 9 2 15 9 16 15
13 8 -4z m97 5 c0 -5 -2 -10 -4 -10 -3 0 -8 5 -11 10 -3 6 -1 10 4 10 6 0 11
-4 11 -10z m-10 -35 c11 -13 10 -14 -4 -9 -9 3 -16 10 -16 15 0 13 6 11 20 -6z
m-55 -15 c3 -5 1 -10 -4 -10 -6 0 -11 5 -11 10 0 6 2 10 4 10 3 0 8 -4 11 -10z
m-29 -15 c-3 -20 -16 -31 -16 -13 0 13 8 28 16 28 1 0 1 -7 0 -15z m64 -5
c-12 -23 -16 -24 -26 -8 -4 6 -3 8 3 5 6 -4 13 0 17 8 3 8 8 15 11 15 3 0 1
-9 -5 -20z m131 -53 c-10 -9 -11 -8 -5 6 3 10 9 15 12 12 3 -3 0 -11 -7 -18z
m16 -153 c-3 -3 -12 -4 -19 -1 -8 3 -5 6 6 6 11 1 17 -2 13 -5z m46 -1 c-7 -2
-19 -2 -25 0 -7 3 -2 5 12 5 14 0 19 -2 13 -5z m227 -33 c0 -5 -5 -10 -11 -10
-5 0 -7 5 -4 10 3 6 8 10 11 10 2 0 4 -4 4 -10z m17 -12 c-3 -8 -6 -5 -6 6 -1
11 2 17 5 13 3 -3 4 -12 1 -19z m43 -9 c0 -14 -17 -10 -23 5 -4 10 -1 13 9 9
7 -3 14 -9 14 -14z m0 -28 c0 -15 -32 -23 -44 -11 -8 8 -6 9 5 5 10 -4 20 -2
24 4 8 13 15 14 15 2z m-179 -74 c-10 -9 -11 -8 -5 6 3 10 9 15 12 12 3 -3 0
-11 -7 -18z m119 3 c0 -5 -5 -10 -11 -10 -5 0 -7 5 -4 10 3 6 8 10 11 10 2 0
4 -4 4 -10z m-64 -12 c4 -7 3 -8 -4 -4 -7 4 -12 2 -12 -4 0 -6 -5 -8 -11 -4
-8 4 -7 9 2 15 18 11 17 11 25 -3z m-158 -681 c6 -5 12 -4 12 1 0 14 41 7 51
-9 7 -11 9 -11 9 4 0 10 4 16 8 13 6 -4 9 -149 3 -188 -1 -5 -44 -8 -96 -8
l-96 0 2 93 c1 50 5 94 9 97 12 8 83 5 98 -3z m-175 -204 c-24 -2 -62 -2 -85
0 -24 2 -5 4 42 4 47 0 66 -2 43 -4z m59 -23 c-2 -16 -6 -30 -8 -30 -2 0 -4
14 -4 30 0 17 4 30 8 30 5 0 7 -13 4 -30z m-162 -2 c0 6 4 12 9 12 5 0 7 -9 4
-20 -3 -12 0 -20 6 -20 7 0 9 5 6 10 -3 6 -1 10 4 10 6 0 11 -2 11 -4 0 -2 3
-12 7 -22 4 -11 3 -15 -5 -10 -6 3 -13 2 -17 -4 -3 -5 1 -10 9 -10 10 0 13 -6
10 -15 -4 -8 -1 -15 5 -15 11 0 15 19 12 53 -1 9 2 17 6 17 5 0 9 -15 8 -32 0
-25 4 -33 17 -33 10 0 25 -10 33 -22 13 -19 13 -22 -1 -27 -8 -3 -13 -2 -9 3
9 16 -6 40 -22 34 -13 -5 -13 -7 0 -15 9 -5 14 -15 10 -24 -4 -12 0 -15 18
-12 19 2 25 11 30 43 l6 40 1 -47 2 -48 -52 -1 c-29 0 -73 -3 -97 -5 -37 -4
-42 -2 -37 12 3 8 6 50 6 92 0 54 3 72 10 62 6 -10 10 -11 10 -2z m100 0 c0
-4 8 -8 17 -8 9 0 14 -2 11 -5 -7 -7 -68 6 -68 14 0 4 9 7 20 7 11 0 20 -4 20
-8z m0 -38 c0 -5 -5 -10 -11 -10 -5 0 -7 5 -4 10 3 6 8 10 11 10 2 0 4 -4 4
-10z m40 6 c0 -3 -4 -8 -10 -11 -5 -3 -10 -1 -10 4 0 6 5 11 10 11 6 0 10 -2
10 -4z m-178 -346 c-3 -195 -3 -200 -24 -200 -16 0 -19 5 -16 24 3 14 1 31 -4
38 -7 9 -8 8 -4 -6 5 -14 2 -17 -11 -12 -10 4 -14 4 -10 0 4 -4 1 -14 -6 -22
-10 -13 -9 -15 6 -9 9 3 17 2 17 -3 0 -6 -33 -10 -75 -10 l-75 0 0 200 0 200
103 0 102 0 -3 -200z m-211 -437 c0 -131 1 -269 2 -307 l2 -68 -102 4 c-98 3
-103 2 -104 -17 0 -11 0 -197 0 -412 l1 -393 -95 0 -95 0 0 508 0 508 100 -4
100 -4 0 211 0 211 95 0 95 0 1 -237z m6149 -1378 c0 -8 -4 -15 -10 -15 -5 0
-7 7 -4 15 4 8 8 15 10 15 2 0 4 -7 4 -15z m4293 -235 c4 0 7 -137 7 -305 l0
-305 100 0 100 0 -2 -407 c-3 -381 -4 -408 -20 -407 -41 3 -43 4 -28 14 17 11
10 13 -14 4 -9 -3 -14 -9 -12 -13 2 -3 -11 -6 -30 -7 -22 0 -34 4 -34 13 0 7
-5 13 -11 13 -6 0 -9 -7 -5 -15 3 -9 0 -15 -9 -15 -9 0 -12 6 -8 17 4 11 3 14
-5 9 -8 -5 -12 1 -12 16 0 18 2 20 10 8 6 -9 10 -10 10 -3 0 6 -4 15 -10 18
-5 3 -10 37 -10 75 l0 70 -412 2 -413 3 -2 75 c-1 41 -2 87 -2 103 l-1 27 -95
0 -95 0 0 100 c0 75 3 100 13 99 6 -1 51 -1 100 0 l87 1 0 100 0 100 400 0
400 0 0 99 0 99 -394 7 c-217 4 -399 4 -405 1 -7 -5 -11 -44 -11 -102 l0 -94
-200 0 -200 0 0 201 0 200 83 -1 c143 -2 127 -15 127 100 l0 99 98 4 c72 3
855 1 905 -3z m-1632 -470 c0 -148 1 -285 2 -302 l1 -33 -102 -3 -102 -3 0
306 0 305 100 0 100 0 1 -270z m-3894 54 c-3 -3 -12 -4 -19 -1 -8 3 -5 6 6 6
11 1 17 -2 13 -5z m5203 -20 c0 -14 -2 -15 -17 -3 -11 10 -14 10 -9 2 4 -7 2
-13 -3 -13 -6 0 -11 5 -11 10 0 6 -5 10 -11 10 -5 0 -7 -4 -4 -10 3 -5 1 -10
-4 -10 -6 0 -11 7 -11 15 0 10 11 15 35 15 26 0 35 -4 35 -16z m44 0 c6 -15 4
-15 -11 -3 -10 7 -20 15 -22 16 -2 2 3 3 11 3 9 0 19 -7 22 -16z m-59 -34 c-3
-5 -12 -10 -18 -10 -7 0 -6 4 3 10 19 12 23 12 15 0z m-35 -4 c0 -3 -4 -8 -10
-11 -5 -3 -10 -1 -10 4 0 6 5 11 10 11 6 0 10 -2 10 -4z m-5163 -63 c-3 -10
-5 -2 -5 17 0 19 2 27 5 18 2 -10 2 -26 0 -35z m5160 17 c-5 -31 -17 -36 -17
-7 0 15 4 27 10 27 5 0 9 -9 7 -20z m33 -54 c0 -3 -4 -8 -10 -11 -5 -3 -10 -1
-10 4 0 6 5 11 10 11 6 0 10 -2 10 -4z m-5323 -22 c-3 -3 -12 -4 -19 -1 -8 3
-5 6 6 6 11 1 17 -2 13 -5z m121 -1 c-16 -2 -40 -2 -55 0 -16 2 -3 4 27 4 30
0 43 -2 28 -4z m-2595 -28 c-3 -9 -8 -14 -10 -11 -3 3 -2 9 2 15 9 16 15 13 8
-4z m37 11 c0 -3 -4 -8 -10 -11 -5 -3 -10 -1 -10 4 0 6 5 11 10 11 6 0 10 -2
10 -4z m90 -4 c0 -4 -10 -9 -22 -9 -18 -2 -20 0 -8 7 18 12 30 13 30 2z m893
1 c-7 -2 -19 -2 -25 0 -7 3 -2 5 12 5 14 0 19 -2 13 -5z m560 0 c-18 -2 -48
-2 -65 0 -18 2 -4 4 32 4 36 0 50 -2 33 -4z m355 1 c-7 -7 -309 -6 -316 1 -3
3 68 5 158 5 90 0 161 -3 158 -6z m39 0 c-3 -3 -12 -4 -19 -1 -8 3 -5 6 6 6
11 1 17 -2 13 -5z m230 -141 c-2 -27 -3 -5 -3 47 0 52 1 74 3 48 2 -27 2 -69
0 -95z m-2230 70 c-3 -10 -5 -2 -5 17 0 19 2 27 5 18 2 -10 2 -26 0 -35z
m2199 -25 c0 -12 -8 -23 -16 -25 -13 -4 -13 -3 0 7 12 9 13 12 1 17 -11 5 -11
7 0 14 8 5 15 9 15 9 1 0 1 -10 0 -22z m-2199 -50 c-2 -13 -4 -5 -4 17 -1 22
1 32 4 23 2 -10 2 -28 0 -40z m1879 27 c-3 -8 -1 -15 3 -15 5 0 11 5 13 10 2
7 13 6 30 -2 32 -15 35 -25 11 -30 -15 -3 -14 -5 4 -10 12 -3 22 -3 21 1 -2
22 5 31 27 31 19 0 23 4 19 18 -4 10 -3 13 3 6 12 -15 53 -24 53 -11 0 26 16
-12 19 -46 1 -5 5 -6 10 -3 11 7 41 -3 41 -13 0 -11 -294 -13 -323 -2 -17 7
-27 7 -27 1 0 -6 9 -10 20 -10 19 0 20 -7 20 -100 l0 -100 -100 0 -99 0 -3
-102 -3 -103 -302 -3 -303 -2 0 105 0 105 -205 0 -205 0 0 100 0 100 588 2
c323 1 570 3 549 5 -23 3 -35 8 -31 15 4 6 -1 8 -15 3 -12 -3 -21 -2 -21 3 0
11 31 9 65 -3 16 -5 17 -5 5 4 -11 8 -9 17 3 9 1 -1 12 4 25 11 26 14 29 4 5
-16 -16 -13 -16 -13 5 -3 12 6 22 15 22 20 0 16 -20 22 -35 10 -10 -8 -15 -8
-21 2 -4 7 -4 10 1 6 4 -4 14 -3 21 3 9 7 19 7 35 -1 16 -9 23 -9 29 -1 3 7
14 9 23 5 10 -3 17 -1 17 5 0 6 3 11 6 11 3 0 4 -7 0 -15z m81 -1 c-3 -3 -12
-4 -19 -1 -8 3 -5 6 6 6 11 1 17 -2 13 -5z m193 1 c0 -7 -30 -13 -34 -7 -3 4
4 9 15 9 10 1 19 0 19 -2z m-36 -21 c23 -9 20 -23 -4 -17 -11 3 -20 9 -20 14
0 11 3 11 24 3z m41 -4 c3 -5 1 -10 -4 -10 -6 0 -11 5 -11 10 0 6 2 10 4 10 3
0 8 -4 11 -10z m-1317 -18 c8 -6 2 -9 -18 -9 -20 0 -26 3 -18 9 7 4 15 8 18 8
3 0 11 -4 18 -8z m82 -7 c0 -9 -6 -12 -16 -8 -13 5 -13 7 -2 14 17 11 18 11
18 -6z m35 -6 c-4 -5 -12 -9 -18 -8 -9 0 -8 2 1 6 6 2 9 10 6 15 -4 7 -2 8 5
4 6 -4 9 -12 6 -17z m1203 -14 c-3 -3 -9 2 -12 12 -6 14 -5 15 5 6 7 -7 10
-15 7 -18z m37 5 c3 -6 -1 -7 -9 -4 -18 7 -21 14 -7 14 6 0 13 -4 16 -10z
m5975 -830 l0 -200 -505 0 -505 0 0 200 0 200 505 0 505 0 0 -200z m-11670
-3380 l0 -100 -100 0 c-60 0 -100 -4 -100 -10 0 -5 15 -10 33 -11 17 0 25 -3
17 -6 -8 -3 -18 -11 -22 -17 -5 -8 -8 -7 -8 2 0 6 -4 12 -10 12 -6 0 -10 -30
-10 -70 0 -51 3 -69 13 -68 7 2 12 -8 11 -26 l0 -29 23 29 c18 23 23 25 23 11
0 -10 4 -15 10 -12 6 3 7 -1 3 -10 -4 -13 -8 -14 -13 -4 -6 9 -12 8 -25 -4
-20 -20 -39 -22 -32 -4 3 8 1 20 -4 28 -7 11 -9 11 -9 -3 0 -17 -17 -18 -210
-18 l-210 0 0 105 0 105 -100 0 -100 0 -1 78 c-1 42 -1 83 0 90 1 6 -4 12 -11
12 -9 0 -9 3 2 10 9 6 177 10 423 10 l407 0 0 -100z m200 28 c0 -85 -8 -87
-11 -3 -1 33 -7 63 -13 67 -7 5 -4 8 7 8 15 0 17 -10 17 -72z m0 -88 c0 -5 -5
-10 -11 -10 -5 0 -7 5 -4 10 3 6 8 10 11 10 2 0 4 -4 4 -10z m-6 -50 c-6 -6
-10 -3 -10 10 0 13 4 16 10 10 7 -7 7 -13 0 -20z m-326 -37 c-10 -2 -18 -9
-18 -15 0 -6 -3 -9 -6 -5 -10 10 6 27 24 26 15 -1 15 -2 0 -6z m62 3 c0 -9
-30 -14 -35 -6 -4 6 3 10 14 10 12 0 21 -2 21 -4z m28 -61 c-3 -3 -9 2 -12 12
-6 14 -5 15 5 6 7 -7 10 -15 7 -18z m-133 -10 c-1 -14 -5 -28 -8 -31 -3 -4 -4
7 -2 22 4 35 4 34 9 34 2 0 3 -11 1 -25z m71 10 c-3 -8 0 -15 7 -15 8 0 6 -4
-3 -10 -11 -7 -11 -10 -2 -10 7 0 10 -4 7 -10 -3 -5 1 -10 9 -10 8 0 18 -4 21
-10 3 -6 -1 -7 -9 -4 -9 3 -16 2 -16 -4 0 -15 26 -22 38 -10 6 6 16 7 24 2 7
-5 22 -7 33 -6 19 2 19 2 2 -9 -16 -9 -18 -24 -16 -107 l2 -97 -144 -1 c-79 0
-126 1 -104 3 22 3 43 10 47 16 5 9 8 8 8 -2 0 -11 3 -12 11 -4 14 14 2 36
-13 27 -7 -4 -8 -2 -4 4 8 13 37 17 35 5 -6 -35 15 -52 37 -30 12 12 26 8 18
-5 -5 -7 -3 -8 5 -4 7 5 10 14 7 22 -3 8 -1 14 4 14 6 0 10 -9 10 -20 0 -11 4
-20 10 -20 5 0 7 13 5 30 -4 32 9 50 19 25 3 -8 1 -17 -4 -20 -5 -3 -6 -13 -3
-21 5 -13 9 -10 20 12 7 16 11 22 9 13 -2 -9 -1 -22 4 -29 4 -7 8 33 9 88 1
79 -1 101 -13 105 -10 4 -14 0 -13 -14 1 -10 5 -19 9 -19 4 0 8 -8 8 -17 -1
-16 -2 -16 -13 -2 -12 16 -18 19 -38 19 -5 0 -7 5 -3 11 4 8 9 7 15 -2 7 -11
9 -11 9 -1 0 7 -7 15 -15 18 -19 8 -44 59 -40 81 2 10 4 21 4 26 1 4 4 7 7 7
3 0 4 -7 0 -15z m64 -25 c-13 -9 -13 -11 0 -20 13 -8 12 -10 -2 -10 -10 0 -18
6 -18 13 0 17 10 27 24 27 6 0 4 -5 -4 -10z m-144 -114 c10 -2 22 2 26 8 4 6
6 1 5 -11 0 -12 -6 -19 -11 -15 -16 9 -56 9 -56 -1 0 -5 -6 -4 -14 2 -11 9
-15 9 -18 0 -2 -7 -8 -6 -16 4 -11 13 -9 15 18 13 21 -2 30 2 30 13 0 13 2 13
9 3 4 -7 17 -15 27 -16z m-429 -8 c-3 -8 -6 -5 -6 6 -1 11 2 17 5 13 3 -3 4
-12 1 -19z m-178 -140 c6 11 10 11 19 0 8 -10 5 -13 -14 -14 -24 -2 -24 -1
-22 85 l2 86 3 -85 c2 -47 7 -79 12 -72z m501 142 c0 -5 -4 -10 -10 -10 -5 0
-10 5 -10 10 0 6 5 10 10 10 6 0 10 -4 10 -10z m215 -30 c3 -5 1 -10 -4 -10
-6 0 -11 5 -11 10 0 6 2 10 4 10 3 0 8 -4 11 -10z m-120 -20 c3 -5 1 -10 -4
-10 -6 0 -11 5 -11 10 0 6 2 10 4 10 3 0 8 -4 11 -10z m162 -10 c-1 -11 -5
-20 -9 -20 -4 0 -8 9 -8 20 0 11 4 20 9 20 6 0 9 -9 8 -20z m-87 6 c0 -11 -19
-15 -25 -6 -3 5 1 10 9 10 9 0 16 -2 16 -4z m27 -31 c0 -8 -4 -12 -9 -9 -5 3
-6 10 -3 15 9 13 12 11 12 -6z m-27 -14 c0 -6 -5 -13 -12 -17 -6 -4 -8 -3 -4
4 3 5 0 13 -6 15 -8 3 -6 6 5 6 9 1 17 -3 17 -8z m-423 -57 c-3 -3 -12 -4 -19
-1 -8 3 -5 6 6 6 11 1 17 -2 13 -5z m180 0 c-3 -3 -12 -4 -19 -1 -8 3 -5 6 6
6 11 1 17 -2 13 -5z m56 -1 c-7 -2 -21 -2 -30 0 -10 3 -4 5 12 5 17 0 24 -2
18 -5z m1947 -308 l0 -305 -100 0 -100 0 0 300 0 299 98 4 c53 1 98 4 100 5 1
1 2 -135 2 -303z m-2 -1132 l2 -613 -100 0 -100 0 0 615 0 616 98 -3 97 -3 3
-612z m1222 -1533 l0 -100 -95 0 -95 0 0 100 0 100 95 0 95 0 0 -100z m3279 0
l1 -100 -100 0 -100 0 0 100 0 100 99 0 99 0 1 -100z m2936 -742 c5 4 5 2 1
-5 -8 -14 -36 -6 -36 9 0 7 5 6 13 -1 8 -6 18 -7 22 -3z m-205 -57 c0 -14 -2
-14 -10 -1 -6 10 -10 11 -10 3 0 -7 -5 -13 -11 -13 -8 0 -9 4 0 13 6 8 8 17 4
21 -4 4 0 4 10 0 9 -3 17 -14 17 -23z m31 2 c-12 -20 -14 -14 -5 12 4 9 9 14
11 11 3 -2 0 -13 -6 -23z m-5204 -85 c-2 -13 -4 -5 -4 17 -1 22 1 32 4 23 2
-10 2 -28 0 -40z m-3864 -35 c-7 -2 -19 -2 -25 0 -7 3 -2 5 12 5 14 0 19 -2
13 -5z m84 1 c-3 -3 -12 -4 -19 -1 -8 3 -5 6 6 6 11 1 17 -2 13 -5z m40 0 c-3
-3 -12 -4 -19 -1 -8 3 -5 6 6 6 11 1 17 -2 13 -5z m3739 -421 c-4 -9 -30 -12
-93 -11 l-88 2 88 3 87 4 2 217 3 217 2 -210 c2 -115 1 -215 -1 -222z m5332 4
c-1 -227 -4 -362 -5 -302 -7 273 -7 723 0 718 4 -2 6 -190 5 -416z m-9241 246
c-2 -32 -3 -6 -3 57 0 63 1 89 3 58 2 -32 2 -84 0 -115z m4023 82 c11 -13 10
-14 -4 -9 -9 3 -16 10 -16 15 0 13 6 11 20 -6z m1510 -345 c0 -5 -2 -10 -4
-10 -3 0 -8 5 -11 10 -3 6 -1 10 4 10 6 0 11 -4 11 -10z m-5533 -167 c-2 -32
-3 -6 -3 57 0 63 1 89 3 58 2 -32 2 -84 0 -115z m-112 147 c3 -5 1 -10 -4 -10
-6 0 -11 5 -11 10 0 6 2 10 4 10 3 0 8 -4 11 -10z m5935 -173 l290 -2 -292 0
-293 0 -1 90 0 90 3 -87 4 -88 289 -3z m-5935 143 c3 -5 1 -10 -4 -10 -6 0
-11 5 -11 10 0 6 2 10 4 10 3 0 8 -4 11 -10z m0 -89 c3 -5 2 -12 -3 -15 -5 -3
-9 1 -9 9 0 17 3 19 12 6z m3115 -55 c0 -2 -11 -6 -25 -8 -14 -3 -25 -1 -25 3
0 5 11 9 25 9 14 0 25 -2 25 -4z m37 -2 c-3 -3 -12 -4 -19 -1 -8 3 -5 6 6 6
11 1 17 -2 13 -5z m60 0 c-3 -3 -12 -4 -19 -1 -8 3 -5 6 6 6 11 1 17 -2 13 -5z
m251 -1 c-10 -2 -26 -2 -35 0 -10 3 -2 5 17 5 19 0 27 -2 18 -5z m95 0 c-13
-2 -35 -2 -50 0 -16 2 -5 4 22 4 28 0 40 -2 28 -4z m105 0 c-16 -2 -40 -2 -55
0 -16 2 -3 4 27 4 30 0 43 -2 28 -4z m89 1 c-3 -3 -12 -4 -19 -1 -8 3 -5 6 6
6 11 1 17 -2 13 -5z m2705 -23 c2 -16 1 -37 -3 -47 -5 -13 -8 -7 -8 22 l-1 40
-102 3 c-56 1 -104 4 -107 7 -2 2 45 4 106 4 l111 0 4 -29z m-6345 -63 c-2
-13 -4 -5 -4 17 -1 22 1 32 4 23 2 -10 2 -28 0 -40z m0 -60 c-3 -7 -5 -2 -5
12 0 14 2 19 5 13 2 -7 2 -19 0 -25z m166 -65 c-23 -2 -64 -2 -90 0 -26 2 -7
3 42 3 50 0 71 -1 48 -3z m8914 1 c-3 -3 -12 -4 -19 -1 -8 3 -5 6 6 6 11 1 17
-2 13 -5z m70 0 c-3 -3 -12 -4 -19 -1 -8 3 -5 6 6 6 11 1 17 -2 13 -5z m-2214
-121 c-3 -7 -6 -13 -8 -13 -2 0 -5 6 -8 13 -3 8 1 14 8 14 7 0 11 -6 8 -14z
m-6753 -3 c0 -5 -5 -10 -11 -10 -5 0 -7 5 -4 10 3 6 8 10 11 10 2 0 4 -4 4
-10z m-72 -45 c-3 -3 -9 2 -12 12 -6 14 -5 15 5 6 7 -7 10 -15 7 -18z m72 10
c0 -12 -19 -12 -23 0 -4 9 -1 12 9 8 7 -3 14 -7 14 -8z m-40 -5 c0 -5 -5 -10
-11 -10 -5 0 -7 5 -4 10 3 6 8 10 11 10 2 0 4 -4 4 -10z m8360 -94 c0 -3 -4
-8 -10 -11 -5 -3 -10 -1 -10 4 0 6 5 11 10 11 6 0 10 -2 10 -4z"/>
<path d="M7603 16140 c3 -11 2 -20 -2 -20 -11 0 -8 -64 4 -72 7 -5 7 -8 0 -8
-5 0 -10 -11 -10 -24 0 -24 1 -24 83 -23 75 1 82 3 82 21 0 19 -1 19 -13 2
-13 -18 -15 -18 -41 -1 -23 16 -29 16 -36 4 -8 -11 -11 -12 -22 -1 -7 8 -8 13
-3 12 6 -1 21 1 33 5 30 10 9 25 -25 19 -12 -2 -23 0 -23 6 0 6 -4 8 -10 5 -5
-3 -10 -1 -10 4 0 14 13 14 27 0 8 -8 13 -8 17 0 4 6 1 11 -6 11 -7 0 -14 11
-14 24 -1 19 2 23 15 19 13 -4 13 -3 2 5 -11 8 -10 12 5 21 11 6 14 11 7 11
-6 0 -15 -4 -18 -10 -3 -5 -14 -10 -23 -10 -15 0 -15 2 -2 10 13 8 12 10 -4
10 -13 0 -17 -5 -13 -20z m22 -40 c3 -5 1 -10 -4 -10 -6 0 -11 5 -11 10 0 6 2
10 4 10 3 0 8 -4 11 -10z"/>
<path d="M7663 16113 c-17 -6 -17 -20 0 -26 8 -3 13 3 13 14 0 11 0 19 -1 18
0 0 -6 -3 -12 -6z"/>
<path d="M7400 15884 c0 -8 5 -12 10 -9 6 3 10 10 10 16 0 5 -4 9 -10 9 -5 0
-10 -7 -10 -16z"/>
<path d="M7486 15803 c-6 -14 -5 -15 5 -6 7 7 10 15 7 18 -3 3 -9 -2 -12 -12z"/>
<path d="M7210 15742 c0 -5 7 -9 15 -9 8 0 12 4 9 9 -3 4 -9 8 -15 8 -5 0 -9
-4 -9 -8z"/>
<path d="M7250 15746 c0 -2 7 -7 16 -10 8 -3 12 -2 9 4 -6 10 -25 14 -25 6z"/>
<path d="M7192 15510 c0 -14 2 -19 5 -12 2 6 2 18 0 25 -3 6 -5 1 -5 -13z"/>
<path d="M7212 15511 c0 -3 0 -22 -2 -41 -1 -29 -3 -32 -10 -15 -6 15 -9 6 -9
-32 -1 -52 0 -53 28 -53 29 0 41 14 41 48 0 12 -3 13 -12 4 -7 -7 -15 -12 -19
-12 -8 0 -5 83 4 97 3 5 0 10 -8 10 -8 0 -14 -3 -13 -6z"/>
<path d="M7245 15481 c-3 -11 -8 -29 -10 -41 -4 -19 -2 -20 12 -8 13 10 17 10
20 1 3 -7 14 -13 25 -13 17 0 18 2 4 15 -8 8 -22 15 -30 15 -19 0 -20 5 -6 31
7 12 7 19 1 19 -5 0 -12 -9 -16 -19z"/>
<path d="M7351 15454 c0 -11 3 -14 6 -6 3 7 2 16 -1 19 -3 4 -6 -2 -5 -13z"/>
<path d="M7266 15395 c-3 -8 -1 -17 3 -20 5 -3 11 2 15 10 3 8 1 17 -3 20 -5
3 -11 -2 -15 -10z"/>
<path d="M7351 15384 c0 -11 3 -14 6 -6 3 7 2 16 -1 19 -3 4 -6 -2 -5 -13z"/>
<path d="M6985 15285 c1 -62 14 -104 16 -54 1 13 2 40 3 59 2 39 -3 60 -13 60
-4 0 -7 -29 -6 -65z"/>
<path d="M7014 15321 c0 -14 6 -32 13 -39 10 -10 11 -7 8 16 -3 26 0 29 26 29
16 0 29 -4 29 -9 0 -5 -3 -7 -7 -5 -5 3 -17 1 -28 -4 -14 -6 -9 -7 18 -4 35 5
51 -8 25 -18 -8 -3 -6 -6 5 -6 9 -1 17 -9 17 -18 0 -14 -2 -15 -9 -4 -5 7 -11
9 -14 4 -3 -5 3 -15 14 -22 20 -11 20 -10 16 34 -2 25 0 48 4 51 4 2 10 -13
12 -33 3 -37 4 -36 5 8 l2 45 -69 1 c-68 1 -69 1 -67 -26z"/>
<path d="M7071 15234 c0 -11 3 -14 6 -6 3 7 2 16 -1 19 -3 4 -6 -2 -5 -13z"/>
<path d="M7143 15180 c0 -41 2 -58 4 -37 2 20 2 54 0 75 -2 20 -4 3 -4 -38z"/>
<path d="M7094 15213 c0 -10 7 -22 15 -27 9 -6 10 -10 2 -15 -6 -4 -13 -26
-15 -50 -4 -41 -4 -42 13 -24 10 10 14 20 10 21 -5 2 -9 8 -9 13 0 6 5 7 10 4
6 -4 10 6 10 24 0 16 -6 32 -12 34 -10 4 -10 8 0 15 11 7 10 10 -3 16 -23 8
-23 8 -21 -11z"/>
<path d="M6986 15187 c3 -10 9 -15 12 -12 3 3 0 11 -7 18 -10 9 -11 8 -5 -6z"/>
<path d="M6991 15094 c0 -11 3 -14 6 -6 3 7 2 16 -1 19 -3 4 -6 -2 -5 -13z"/>
<path d="M7133 15080 c-11 -16 -10 -18 2 -14 8 4 15 12 15 20 0 19 -3 18 -17
-6z"/>
<path d="M6799 14750 c-1 -47 0 -98 1 -114 1 -20 -2 -26 -11 -21 -8 5 -10 4
-5 -4 4 -6 11 -9 15 -7 4 3 5 -24 3 -60 -3 -46 -1 -64 8 -64 7 0 10 6 7 14 -3
7 0 19 6 26 9 10 9 11 0 6 -8 -4 -13 -1 -13 8 0 9 5 16 11 16 8 0 8 4 0 14
-10 11 -10 20 -1 37 8 14 8 19 1 15 -15 -10 -14 27 2 43 10 11 10 13 0 7 -7
-4 -13 -3 -13 3 0 5 6 12 13 14 10 4 10 6 0 6 -7 1 -13 8 -13 16 0 8 6 15 13
15 9 0 9 2 -1 9 -14 9 -13 31 3 44 6 6 6 10 -3 14 -6 2 -10 8 -8 12 3 4 1 13
-5 21 -6 10 -9 -14 -10 -70z"/>
<path d="M6810 14400 c-6 -11 -8 -20 -6 -20 3 0 10 9 16 20 6 11 8 20 6 20 -3
0 -10 -9 -16 -20z"/>
<path d="M6805 14340 c-9 -14 4 -50 17 -50 6 0 6 6 -2 15 -7 8 -10 22 -6 30 6
17 0 20 -9 5z"/>
<path d="M6795 14209 c-4 -6 -5 -12 -2 -15 2 -3 7 2 10 11 7 17 1 20 -8 4z"/>
<path d="M6811 14124 c0 -11 3 -14 6 -6 3 7 2 16 -1 19 -3 4 -6 -2 -5 -13z"/>
<path d="M16581 13190 c-2 -14 -3 -40 -3 -57 -1 -32 -11 -43 -22 -24 -4 5 -1
11 6 13 8 3 8 9 -1 24 -10 15 -11 15 -7 2 3 -10 1 -18 -5 -18 -6 0 -8 -9 -4
-20 4 -11 2 -20 -4 -20 -6 0 -11 7 -11 16 0 10 -6 14 -14 11 -16 -6 -30 19
-16 28 6 4 10 1 10 -4 0 -6 5 -11 10 -11 17 0 11 14 -11 28 -12 8 -18 9 -14 3
3 -6 -1 -11 -9 -11 -9 0 -16 -4 -16 -10 0 -5 5 -10 10 -10 6 0 10 -12 10 -26
0 -17 -4 -24 -13 -21 -15 6 -21 -29 -6 -38 5 -3 6 1 3 9 -3 9 -1 16 5 16 6 0
11 -9 11 -20 0 -11 -4 -20 -8 -20 -4 0 -6 -16 -4 -35 5 -39 -4 -37 142 -35
109 1 107 1 106 18 0 8 5 17 12 19 7 3 10 -1 6 -10 -3 -8 -1 -18 5 -22 7 -3 8
0 5 9 -4 11 0 16 10 16 13 0 16 11 15 55 -2 57 -13 73 -21 30 -3 -13 0 -26 6
-29 7 -3 6 -8 -4 -15 -13 -10 -13 -12 0 -21 9 -6 10 -10 3 -10 -6 0 -18 7 -27
15 -8 8 -19 15 -25 15 -14 0 -14 11 0 30 9 13 10 13 6 -2 -6 -17 20 -34 32
-22 3 4 0 9 -6 11 -7 3 -13 9 -13 14 0 6 6 7 13 3 6 -4 8 -3 4 2 -10 11 -69
13 -83 3 -6 -5 -11 -3 -11 6 0 8 7 16 16 17 9 0 -4 4 -29 7 l-45 6 -6 55 c-3
30 -7 44 -8 30z m20 -123 c-10 -9 -11 -8 -5 6 3 10 9 15 12 12 3 -3 0 -11 -7
-18z m39 13 c0 -5 -2 -10 -4 -10 -3 0 -8 5 -11 10 -3 6 -1 10 4 10 6 0 11 -4
11 -10z m-110 -25 c0 -8 -4 -15 -10 -15 -5 0 -7 7 -4 15 4 8 8 15 10 15 2 0 4
-7 4 -15z m160 8 c0 -5 -5 -15 -10 -23 -7 -12 -9 -10 -7 8 1 19 17 33 17 15z
m-160 -55 c0 -7 -5 -20 -10 -28 -7 -12 -12 -12 -22 -2 -9 9 -8 15 8 27 24 18
24 18 24 3z m20 -28 c0 -5 -5 -10 -11 -10 -5 0 -7 5 -4 10 3 6 8 10 11 10 2 0
4 -4 4 -10z m160 0 c0 -5 -4 -10 -10 -10 -5 0 -10 5 -10 10 0 6 5 10 10 10 6
0 10 -4 10 -10z"/>
<path d="M16698 13093 c7 -3 16 -2 19 1 4 3 -2 6 -13 5 -11 0 -14 -3 -6 -6z"/>
<path d="M16585 12939 c-21 -8 -13 -10 73 -13 40 -2 42 10 2 16 -16 3 -30 0
-30 -5 0 -6 -5 -5 -12 1 -8 5 -22 6 -33 1z"/>
<path d="M16500 12926 c7 -7 14 -6 21 1 9 9 7 12 -9 10 -14 -1 -18 -5 -12 -11z"/>
<path d="M17673 12283 c15 -2 37 -2 50 0 12 2 0 4 -28 4 -27 0 -38 -2 -22 -4z"/>
<path d="M11460 12746 c0 -2 7 -6 15 -10 8 -3 15 -1 15 4 0 6 -7 10 -15 10 -8
0 -15 -2 -15 -4z"/>
<path d="M16782 12043 c-1 -18 -7 -33 -13 -33 -5 0 -7 5 -4 10 3 6 2 10 -4 10
-6 0 -8 8 -5 18 5 13 4 14 -4 3 -6 -8 -8 -20 -5 -28 5 -12 -13 -17 -54 -16 -7
1 -10 -4 -6 -10 4 -6 0 -8 -10 -4 -11 4 -14 2 -10 -9 3 -7 1 -14 -5 -14 -6 0
-13 6 -15 13 -4 10 -6 10 -6 0 -1 -7 -8 -13 -16 -13 -13 0 -15 -22 -15 -140
l0 -140 263 0 c183 1 257 4 245 11 -10 5 -18 15 -18 21 0 7 5 7 14 -1 10 -8
16 -9 21 -1 4 6 3 10 -2 9 -4 -1 -10 0 -13 1 -26 10 -41 7 -36 -7 4 -9 -10 1
-31 20 -40 40 -73 43 -99 10 -13 -17 -14 -17 -7 1 4 13 3 17 -5 12 -8 -5 -12
0 -12 12 0 11 -7 23 -16 26 -9 3 -12 11 -8 18 5 8 2 9 -9 5 -11 -4 -14 -2 -10
9 3 8 12 13 21 12 8 -2 16 3 18 10 1 7 0 8 -3 2 -3 -8 -9 -7 -19 1 -10 8 -14
8 -14 0 0 -6 -4 -11 -10 -11 -5 0 -9 5 -7 12 2 13 -4 15 -53 17 l-29 1 -4 98
c-1 53 -4 82 -5 65z m243 -302 c-6 -5 -25 10 -25 20 0 5 6 4 14 -3 8 -7 12
-15 11 -17z"/>
<path d="M17155 11871 c-3 -2 -18 -4 -35 -3 -16 0 -30 -4 -30 -9 0 -5 9 -9 20
-9 11 0 20 -7 20 -15 0 -8 5 -14 11 -12 6 1 14 -4 17 -12 3 -9 0 -11 -9 -6 -8
5 -11 5 -7 0 4 -4 3 -14 -4 -22 -8 -11 -8 -17 2 -26 8 -8 11 -8 7 -1 -4 7 3
18 16 26 22 15 22 14 22 -28 0 -23 -4 -46 -9 -51 -4 -4 -6 1 -4 11 1 10 -3 21
-10 23 -7 3 -10 -1 -6 -11 4 -10 1 -16 -7 -17 -8 0 -5 -4 6 -9 43 -18 45 -14
45 84 0 89 -1 95 -20 93 -12 -1 -23 -3 -25 -6z m35 -51 c0 -5 -5 -10 -11 -10
-5 0 -7 5 -4 10 3 6 8 10 11 10 2 0 4 -4 4 -10z"/>
<path d="M16985 11860 c-17 -8 -17 -9 7 -7 15 1 24 5 22 9 -3 4 -6 8 -7 7 -1
0 -11 -4 -22 -9z"/>
<path d="M17030 11860 c0 -5 5 -10 10 -10 6 0 10 5 10 10 0 6 -4 10 -10 10 -5
0 -10 -4 -10 -10z"/>
<path d="M12496 17804 c-3 -9 -6 -101 -6 -205 l0 -189 -100 0 -100 0 0 -105 0
-105 -99 0 c-94 0 -99 -1 -104 -22 -3 -13 -9 -103 -13 -200 -6 -164 -8 -176
-25 -175 -11 1 -19 5 -19 10 0 5 7 7 15 3 13 -4 15 9 15 89 l0 95 -90 0 -90 0
0 95 0 95 -94 0 -93 0 -2 -95 -2 -94 93 -3 93 -3 -3 -202 -3 -203 211 0 210 0
0 -105 0 -105 83 0 c134 0 128 -4 125 109 l-3 96 -102 3 -103 3 0 304 0 305
105 0 105 0 -2 93 c0 52 2 99 6 105 5 8 41 12 102 12 l94 0 0 205 0 205 -99 0
c-81 0 -100 -3 -105 -16z m-702 -650 c3 -8 2 -12 -4 -9 -6 3 -10 10 -10 16 0
14 7 11 14 -7z m-69 -54 c3 -5 1 -10 -4 -10 -6 0 -11 5 -11 10 0 6 2 10 4 10
3 0 8 -4 11 -10z m97 -17 c-10 -4 -10 -8 -1 -19 7 -8 7 -14 1 -14 -12 0 -23
26 -15 34 4 3 11 6 17 5 6 0 5 -3 -2 -6z m-92 -13 c0 -5 -4 -10 -10 -10 -5 0
-10 5 -10 10 0 6 5 10 10 10 6 0 10 -4 10 -10z m128 -15 c-3 -3 -9 2 -12 12
-6 14 -5 15 5 6 7 -7 10 -15 7 -18z m-128 -9 c0 -3 -4 -8 -10 -11 -5 -3 -10
-1 -10 4 0 6 5 11 10 11 6 0 10 -2 10 -4z m97 -21 c0 -8 -4 -15 -9 -15 -10 0
-11 14 -1 23 9 10 10 9 10 -8z m43 1 c0 -2 -7 -7 -16 -10 -8 -3 -12 -2 -9 4 6
10 25 14 25 6z m80 -40 c0 -3 -4 -8 -10 -11 -5 -3 -10 -1 -10 4 0 6 5 11 10
11 6 0 10 -2 10 -4z m90 -6 c-12 -8 -12 -10 -1 -10 8 0 12 -3 8 -6 -9 -9 -28
6 -22 17 4 5 12 9 18 9 7 0 6 -4 -3 -10z m-93 -35 c0 -8 -6 -16 -13 -19 -7 -3
-10 2 -7 15 6 22 20 26 20 4z m3 -45 c0 -5 -5 -10 -11 -10 -5 0 -7 5 -4 10 3
6 8 10 11 10 2 0 4 -4 4 -10z m-10 -30 c0 -5 -5 -10 -11 -10 -5 0 -7 5 -4 10
3 6 8 10 11 10 2 0 4 -4 4 -10z m10 -60 c0 -5 -4 -10 -10 -10 -5 0 -10 5 -10
10 0 6 5 10 10 10 6 0 10 -4 10 -10z m45 0 c3 -5 -3 -10 -15 -10 -12 0 -18 5
-15 10 3 6 10 10 15 10 5 0 12 -4 15 -10z"/>
<path d="M7779 17593 c-2 -25 -2 -134 0 -160 1 -22 4 -23 100 -23 l98 0 7 39
c3 21 3 66 0 100 l-7 61 -98 0 c-87 0 -99 -2 -100 -17z"/>
<path d="M7544 17239 c-3 -6 -1 -16 5 -22 8 -8 11 -5 11 11 0 24 -5 28 -16 11z"/>
<path d="M7982 17103 l3 -98 101 -3 101 -3 7 75 c4 41 4 86 0 100 -6 26 -7 26
-110 26 l-105 0 3 -97z"/>
<path d="M9063 16783 c9 -2 23 -2 30 0 6 3 -1 5 -18 5 -16 0 -22 -2 -12 -5z"/>
<path d="M9138 16783 c18 -2 45 -2 60 0 15 2 0 4 -33 4 -33 0 -45 -2 -27 -4z"/>
<path d="M8864 16712 c-14 -9 -25 -52 -13 -52 5 0 9 7 9 16 0 8 4 13 8 10 4
-2 9 4 9 15 2 21 2 21 -13 11z"/>
<path d="M8863 16653 c-7 -2 -13 -12 -12 -21 0 -13 2 -14 6 -3 4 10 10 5 19
-15 11 -25 12 -26 13 -7 1 12 -4 25 -9 28 -6 4 -8 11 -5 16 7 10 6 10 -12 2z"/>
<path d="M8905 16616 c1 -12 6 -19 11 -17 5 1 8 8 6 14 -2 5 3 14 10 18 9 6 6
8 -8 7 -14 -1 -20 -8 -19 -22z"/>
<path d="M9200 16631 c0 -5 5 -13 10 -16 6 -3 10 -2 10 4 0 5 -4 13 -10 16 -5
3 -10 2 -10 -4z"/>
<path d="M8210 16559 c0 -5 11 -9 25 -9 14 0 25 4 25 9 0 5 -11 9 -25 9 -14 0
-25 -4 -25 -9z"/>
<path d="M8270 16558 c0 -5 27 -8 60 -7 33 1 60 5 60 9 0 3 -27 7 -60 7 -33 0
-60 -4 -60 -9z"/>
<path d="M8400 16559 c0 -4 8 -9 18 -11 10 -3 19 0 19 6 0 7 -9 12 -19 12 -10
0 -18 -3 -18 -7z"/>
<path d="M8450 16558 c0 -4 7 -8 15 -8 8 0 15 4 15 8 0 5 -7 9 -15 9 -8 0 -15
-4 -15 -9z"/>
<path d="M8495 16560 c-3 -5 -1 -10 4 -10 6 0 11 5 11 10 0 6 -2 10 -4 10 -3
0 -8 -4 -11 -10z"/>
<path d="M8525 16560 c-4 -6 3 -10 14 -10 25 0 27 6 6 13 -8 4 -17 2 -20 -3z"/>
<path d="M8578 16553 c7 -3 16 -2 19 1 4 3 -2 6 -13 5 -11 0 -14 -3 -6 -6z"/>
<path d="M8786 16485 c4 -8 8 -15 10 -15 2 0 4 7 4 15 0 8 -4 15 -10 15 -5 0
-7 -7 -4 -15z"/>
<path d="M8261 16474 c0 -11 3 -14 6 -6 3 7 2 16 -1 19 -3 4 -6 -2 -5 -13z"/>
<path d="M8263 16404 c3 -3 0 -12 -6 -19 -9 -10 -16 -10 -27 -1 -13 10 -13 9
-1 -7 13 -16 15 -16 32 -1 17 15 18 34 2 34 -4 0 -4 -3 0 -6z"/>
<path d="M8408 16393 c7 -3 16 -2 19 1 4 3 -2 6 -13 5 -11 0 -14 -3 -6 -6z"/>
<path d="M8280 16365 c-11 -13 -10 -14 4 -9 9 3 16 10 16 15 0 13 -6 11 -20
-6z"/>
<path d="M12499 16330 c0 -27 -1 -66 -1 -85 0 -19 1 -42 1 -50 1 -12 19 -15
101 -15 l100 0 0 100 0 100 -100 0 -100 0 -1 -50z"/>
<path d="M7790 16365 c0 -5 5 -17 10 -25 5 -8 10 -10 10 -5 0 6 -5 17 -10 25
-5 8 -10 11 -10 5z"/>
<path d="M7946 16352 c16 -16 21 -16 33 -5 7 8 10 17 7 21 -4 3 -11 0 -16 -8
-7 -10 -10 -11 -10 -2 0 6 -8 12 -17 12 -15 0 -14 -2 3 -18z"/>
<path d="M8000 16362 c0 -4 9 -13 20 -20 19 -12 20 -11 8 8 -13 20 -28 27 -28
12z"/>
<path d="M8010 16320 c0 -5 5 -10 11 -10 5 0 7 5 4 10 -3 6 -8 10 -11 10 -2 0
-4 -4 -4 -10z"/>
<path d="M8210 16296 c0 -2 7 -7 16 -10 8 -3 12 -2 9 4 -6 10 -25 14 -25 6z"/>
<path d="M8193 16215 c0 -8 4 -12 9 -9 5 3 6 10 3 15 -9 13 -12 11 -12 -6z"/>
<path d="M8230 16221 c0 -6 4 -13 10 -16 6 -3 7 1 4 9 -7 18 -14 21 -14 7z"/>
<path d="M8386 16207 c3 -10 9 -15 12 -12 3 3 0 11 -7 18 -10 9 -11 8 -5 -6z"/>
<path d="M8360 16190 c-8 -5 -12 -12 -9 -15 4 -3 12 1 19 10 14 17 11 19 -10
5z"/>
<path d="M12699 16170 c-1 -5 -1 -21 -1 -35 0 -14 0 -56 1 -95 l1 -70 100 0
100 0 0 -100 0 -100 99 0 99 0 4 98 c3 53 3 100 1 105 -2 4 -49 7 -104 7 l-99
0 0 100 0 100 -100 0 c-59 0 -100 -4 -101 -10z"/>
<path d="M8250 16062 c0 -15 28 -23 36 -9 4 7 4 9 -1 5 -4 -4 -14 -3 -22 3 -8
7 -13 8 -13 1z"/>
<path d="M8210 16056 c0 -2 7 -7 16 -10 8 -3 12 -2 9 4 -6 10 -25 14 -25 6z"/>
<path d="M7988 15773 c7 -3 16 -2 19 1 4 3 -2 6 -13 5 -11 0 -14 -3 -6 -6z"/>
<path d="M13104 15757 c-2 -7 -3 -98 -2 -202 l3 -190 103 -3 102 -3 0 -204 0
-205 -57 0 c-31 0 -54 -2 -51 -5 2 -3 75 -2 161 2 l157 6 -2 201 -3 201 -102
3 -103 3 0 204 0 205 -100 0 c-73 0 -102 -4 -106 -13z"/>
<path d="M7966 15743 c-6 -14 -5 -15 5 -6 7 7 10 15 7 18 -3 3 -9 -2 -12 -12z"/>
<path d="M7817 15743 c-4 -3 -7 -11 -7 -17 0 -6 5 -5 12 2 6 6 9 14 7 17 -3 3
-9 2 -12 -2z"/>
<path d="M7970 15569 c0 -5 5 -7 10 -4 6 3 10 8 10 11 0 2 -4 4 -10 4 -5 0
-10 -5 -10 -11z"/>
<path d="M7970 15508 c0 -23 3 -39 6 -35 10 9 12 77 2 77 -4 0 -8 -19 -8 -42z"/>
<path d="M7968 15425 c-2 -20 0 -34 6 -32 10 3 15 67 5 67 -4 0 -9 -16 -11
-35z"/>
<path d="M12968 15353 c7 -3 16 -2 19 1 4 3 -2 6 -13 5 -11 0 -14 -3 -6 -6z"/>
<path d="M7607 15153 c-10 -9 -9 -33 1 -33 4 0 8 9 8 20 0 23 0 22 -9 13z"/>
<path d="M8400 15055 l0 -105 -100 0 -100 0 0 -305 c0 -237 3 -305 13 -306 6
0 50 -1 97 -2 l85 -2 3 -102 3 -103 309 0 310 0 0 100 c0 73 3 100 13 101 6 0
51 0 100 -1 l87 -1 1 138 c0 76 1 215 1 308 l1 170 -101 3 -102 3 0 104 0 105
-310 0 -310 0 0 -105z m618 -406 l2 -307 -22 -4 c-18 -3 -528 -2 -585 1 -10 1
-13 69 -13 304 0 167 3 306 6 310 4 3 142 5 308 4 l301 -2 3 -306z"/>
<path d="M7606 15025 c4 -8 11 -15 16 -15 6 0 5 6 -2 15 -7 8 -14 15 -16 15
-2 0 -1 -7 2 -15z"/>
<path d="M7605 14989 c-9 -14 3 -59 15 -59 6 0 10 5 10 10 0 6 -4 10 -9 10 -5
0 -8 11 -6 25 2 27 0 31 -10 14z"/>
<path d="M11471 14951 c-8 -5 -10 -37 -6 -104 l4 -97 -104 0 -105 0 0 -100 0
-100 -100 0 -100 0 0 -110 0 -110 98 0 c54 0 103 5 108 10 6 6 9 44 7 90 l-4
80 41 0 c23 0 39 4 36 9 -3 4 -21 7 -41 5 -19 -1 -35 2 -35 7 0 5 87 9 205 9
l205 0 0 106 0 106 410 -4 410 -4 0 108 0 107 -509 -1 c-279 0 -513 -3 -520
-7z"/>
<path d="M13297 14923 c-3 -5 -1 -17 4 -28 6 -17 7 -16 6 8 -1 28 -3 32 -10
20z"/>
<path d="M7605 14866 c0 -55 10 -88 12 -38 2 66 2 66 20 51 13 -11 13 -8 -2
13 -11 15 -22 28 -25 28 -3 0 -5 -24 -5 -54z"/>
<path d="M7730 14860 c0 -5 5 -10 11 -10 5 0 7 5 4 10 -3 6 -8 10 -11 10 -2 0
-4 -4 -4 -10z"/>
<path d="M7606 14765 c-3 -8 -1 -15 3 -15 5 0 11 7 15 15 3 8 1 15 -3 15 -5 0
-11 -7 -15 -15z"/>
<path d="M13296 14755 c4 -8 8 -15 10 -15 2 0 4 7 4 15 0 8 -4 15 -10 15 -5 0
-7 -7 -4 -15z"/>
<path d="M7610 14729 c0 -5 5 -7 10 -4 6 3 10 8 10 11 0 2 -4 4 -10 4 -5 0
-10 -5 -10 -11z"/>
<path d="M12330 14719 c0 -5 -5 -7 -12 -3 -7 4 -8 3 -4 -5 6 -9 11 -9 22 0 17
14 18 19 4 19 -5 0 -10 -5 -10 -11z"/>
<path d="M12364 14722 c3 -5 0 -13 -6 -15 -9 -4 -10 -6 -1 -6 17 -1 25 16 12
25 -7 4 -9 3 -5 -4z"/>
<path d="M12403 14723 c-10 -3 -10 -8 1 -19 19 -19 32 -18 16 1 -15 18 1 20
19 3 10 -11 11 -10 6 5 -7 17 -19 20 -42 10z"/>
<path d="M12483 14675 c0 -33 2 -45 4 -27 2 18 2 45 0 60 -2 15 -4 0 -4 -33z"/>
<path d="M12292 14650 c1 -33 3 -42 5 -22 3 22 8 30 16 25 9 -5 9 -3 1 8 -6 8
-14 21 -17 29 -3 8 -5 -10 -5 -40z"/>
<path d="M12396 14668 c3 -5 10 -6 15 -3 13 9 11 12 -6 12 -8 0 -12 -4 -9 -9z"/>
<path d="M12482 14590 c0 -14 2 -19 5 -12 2 6 2 18 0 25 -3 6 -5 1 -5 -13z"/>
<path d="M7610 14580 c0 -5 5 -10 11 -10 5 0 7 5 4 10 -3 6 -8 10 -11 10 -2 0
-4 -4 -4 -10z"/>
<path d="M7606 14513 c-6 -14 -5 -15 5 -6 7 7 10 15 7 18 -3 3 -9 -2 -12 -12z"/>
<path d="M11360 14519 c0 -5 22 -9 49 -9 30 0 51 -5 54 -12 3 -7 6 -3 6 9 1
20 -3 22 -54 22 -30 -1 -55 -5 -55 -10z"/>
<path d="M11444 14468 c-4 -6 -3 -8 3 -5 6 4 10 -7 11 -24 1 -48 12 -48 12 -1
0 41 -11 54 -26 30z"/>
<path d="M7611 14454 c0 -11 3 -14 6 -6 3 7 2 16 -1 19 -3 4 -6 -2 -5 -13z"/>
<path d="M11455 14380 c-3 -5 -1 -10 4 -10 6 0 11 5 11 10 0 6 -2 10 -4 10 -3
0 -8 -4 -11 -10z"/>
<path d="M7609 14363 c-1 -5 -2 -34 -3 -65 -1 -48 1 -56 16 -55 14 1 15 4 5
17 -7 8 -12 36 -12 63 1 26 0 47 -2 47 -1 0 -4 -3 -4 -7z"/>
<path d="M7635 14300 c2 -27 10 -33 12 -10 1 11 -2 22 -6 24 -4 3 -7 -4 -6
-14z"/>
<path d="M12901 14103 c2 -24 2 -24 6 -6 4 21 10 22 101 26 l97 3 -102 2 -103
2 1 -27z"/>
<path d="M12903 13990 c0 -47 2 -66 4 -42 2 23 2 61 0 85 -2 23 -4 4 -4 -43z"/>
<path d="M7626 13948 c3 -5 10 -6 15 -3 13 9 11 12 -6 12 -8 0 -12 -4 -9 -9z"/>
<path d="M12758 13913 c6 -2 18 -2 25 0 6 3 1 5 -13 5 -14 0 -19 -2 -12 -5z"/>
<path d="M12502 13700 c0 -14 2 -19 5 -12 2 6 2 18 0 25 -3 6 -5 1 -5 -13z"/>
<path d="M12527 13703 c3 -7 6 -13 8 -13 2 0 5 6 8 13 3 8 -1 14 -8 14 -7 0
-11 -6 -8 -14z"/>
<path d="M12503 13635 c0 -22 2 -30 4 -17 2 12 2 30 0 40 -3 9 -5 -1 -4 -23z"/>
<path d="M8658 13513 c7 -3 16 -2 19 1 4 3 -2 6 -13 5 -11 0 -14 -3 -6 -6z"/>
<path d="M8768 13513 c6 -2 18 -2 25 0 6 3 1 5 -13 5 -14 0 -19 -2 -12 -5z"/>
<path d="M11908 13513 c6 -2 18 -2 25 0 6 3 1 5 -13 5 -14 0 -19 -2 -12 -5z"/>
<path d="M11958 13513 c6 -2 18 -2 25 0 6 3 1 5 -13 5 -14 0 -19 -2 -12 -5z"/>
<path d="M12013 13513 c9 -2 23 -2 30 0 6 3 -1 5 -18 5 -16 0 -22 -2 -12 -5z"/>
<path d="M12010 13479 c0 -5 5 -7 10 -4 6 3 10 8 10 11 0 2 -4 4 -10 4 -5 0
-10 -5 -10 -11z"/>
<path d="M12040 13483 c0 -5 5 -15 10 -23 7 -12 9 -10 7 8 -1 19 -17 33 -17
15z"/>
<path d="M8780 13463 c0 -5 5 -15 10 -23 8 -12 10 -11 10 8 0 12 -4 22 -10 22
-5 0 -10 -3 -10 -7z"/>
<path d="M8703 13373 c-7 -3 -13 -10 -13 -16 0 -8 3 -8 11 0 6 6 18 9 25 6 8
-3 14 -3 14 0 0 8 -24 14 -37 10z"/>
<path d="M8753 13368 c-4 -7 -1 -8 7 -3 10 6 12 4 7 -8 -8 -21 11 -33 26 -18
9 9 7 11 -8 6 -19 -6 -19 -6 -2 8 17 14 16 15 -3 20 -11 3 -23 0 -27 -5z"/>
<path d="M8677 13339 c7 -7 15 -10 18 -7 3 3 -2 9 -12 12 -14 6 -15 5 -6 -5z"/>
<path d="M8730 13340 c0 -5 5 -10 10 -10 6 0 10 5 10 10 0 6 -4 10 -10 10 -5
0 -10 -4 -10 -10z"/>
<path d="M7170 5325 l0 -205 105 0 105 0 0 205 0 205 -105 0 -105 0 0 -205z"/>
<path d="M12263 5245 c0 -38 2 -53 4 -32 2 20 2 52 0 70 -2 17 -4 1 -4 -38z"/>
<path d="M8423 5230 c0 -41 2 -58 4 -37 2 20 2 54 0 75 -2 20 -4 3 -4 -38z"/>
<path d="M12233 5235 c0 -8 4 -12 9 -9 4 3 8 9 8 15 0 5 -4 9 -8 9 -5 0 -9 -7
-9 -15z"/>
<path d="M12230 5201 c0 -6 4 -13 10 -16 6 -3 7 1 4 9 -7 18 -14 21 -14 7z"/>
<path d="M12263 5151 c0 -11 5 -18 9 -15 4 3 5 11 1 19 -7 21 -12 19 -10 -4z"/>
<path d="M6960 5020 c0 -55 1 -100 3 -101 1 0 48 -3 105 -5 l103 -5 -3 103 -3
103 -102 3 -103 3 0 -101z"/>
<path d="M12501 5074 c0 -11 3 -14 6 -6 3 7 2 16 -1 19 -3 4 -6 -2 -5 -13z"/>
<path d="M12503 4985 c0 -38 2 -53 4 -32 2 20 2 52 0 70 -2 17 -4 1 -4 -38z"/>
<path d="M12600 4930 l-85 -6 93 -2 c60 -1 91 2 87 8 -3 6 -7 9 -8 8 -1 -1
-40 -5 -87 -8z"/>
<path d="M12988 4923 c23 -2 61 -2 85 0 23 2 4 4 -43 4 -47 0 -66 -2 -42 -4z"/>
<path d="M6760 4821 c0 -81 3 -100 16 -105 9 -3 54 -6 100 -6 l85 0 -3 103 -3
102 -97 3 -98 3 0 -100z"/>
<path d="M12778 4903 c6 -2 18 -2 25 0 6 3 1 5 -13 5 -14 0 -19 -2 -12 -5z"/>
<path d="M7971 4864 c0 -11 3 -14 6 -6 3 7 2 16 -1 19 -3 4 -6 -2 -5 -13z"/>
<path d="M12702 4825 c0 -16 2 -22 5 -12 2 9 2 23 0 30 -3 6 -5 -1 -5 -18z"/>
<path d="M12703 4755 c0 -22 2 -30 4 -17 2 12 2 30 0 40 -3 9 -5 -1 -4 -23z"/>
<path d="M7940 4719 c0 -5 5 -7 10 -4 6 3 10 8 10 11 0 2 -4 4 -10 4 -5 0 -10
-5 -10 -11z"/>
<path d="M6560 4610 l0 -100 -206 -2 -207 -3 2 -94 c1 -52 5 -99 7 -103 3 -4
95 -8 205 -8 l199 0 0 100 0 100 100 0 100 0 0 105 0 105 -100 0 -100 0 0
-100z"/>
<path d="M7668 4703 c6 -2 18 -2 25 0 6 3 1 5 -13 5 -14 0 -19 -2 -12 -5z"/>
<path d="M12918 4703 c7 -3 16 -2 19 1 4 3 -2 6 -13 5 -11 0 -14 -3 -6 -6z"/>
<path d="M12958 4703 c7 -3 16 -2 19 1 4 3 -2 6 -13 5 -11 0 -14 -3 -6 -6z"/>
<path d="M8402 4008 l2 -83 3 77 4 77 97 4 97 3 -102 2 -103 2 2 -82z"/>
<path d="M12088 4083 c6 -2 18 -2 25 0 6 3 1 5 -13 5 -14 0 -19 -2 -12 -5z"/>
<path d="M12282 4065 c0 -16 2 -22 5 -12 2 9 2 23 0 30 -3 6 -5 -1 -5 -18z"/>
<path d="M9213 3995 c0 -38 2 -53 4 -32 2 20 2 52 0 70 -2 17 -4 1 -4 -38z"/>
<path d="M11471 4044 c0 -11 3 -14 6 -6 3 7 2 16 -1 19 -3 4 -6 -2 -5 -13z"/>
<path d="M12283 3980 c0 -30 2 -43 4 -27 2 15 2 39 0 55 -2 15 -4 2 -4 -28z"/>
<path d="M12668 3883 c6 -2 18 -2 25 0 6 3 1 5 -13 5 -14 0 -19 -2 -12 -5z"/>
<path d="M12692 3735 c0 -16 2 -22 5 -12 2 9 2 23 0 30 -3 6 -5 -1 -5 -18z"/>
</g>
</svg>
